<svg xmlns="http://www.w3.org/2000/svg" viewBox="0 0 600 420">
  <!-- Fachada de bodega: toldo a rayas, vitrina, mostrador, sacos, panera, balanza y cajón de fruta.
       El letrero va en blanco: el nombre del negocio se pone encima desde el HTML. -->
  <ellipse cx="300" cy="404" rx="285" ry="12" fill="#000" opacity=".18"/>
  <rect x="50" y="40" width="500" height="362" rx="6" fill="#f7efdc"/>
  <rect x="50" y="330" width="500" height="72" fill="#efe2c4"/>
  <!-- cornisa y letrero -->
  <rect x="38" y="26" width="524" height="74" rx="8" fill="#0f6b56"/>
  <rect x="38" y="90" width="524" height="10" fill="#0a4f40"/>
  <rect x="136" y="40" width="328" height="44" rx="5" fill="#fffaf0"/>
  <rect x="136" y="40" width="328" height="44" rx="5" fill="none" stroke="#ffcf3d" stroke-width="3"/>
  <!-- toldo -->
  <rect x="44" y="104" width="512" height="10" rx="3" fill="#8f3524"/>
  <g>
    <rect x="50" y="112" width="50" height="46" fill="#b5452f"/>
    <rect x="100" y="112" width="50" height="46" fill="#fbf4e4"/>
    <rect x="150" y="112" width="50" height="46" fill="#b5452f"/>
    <rect x="200" y="112" width="50" height="46" fill="#fbf4e4"/>
    <rect x="250" y="112" width="50" height="46" fill="#b5452f"/>
    <rect x="300" y="112" width="50" height="46" fill="#fbf4e4"/>
    <rect x="350" y="112" width="50" height="46" fill="#b5452f"/>
    <rect x="400" y="112" width="50" height="46" fill="#fbf4e4"/>
    <rect x="450" y="112" width="50" height="46" fill="#b5452f"/>
    <rect x="500" y="112" width="50" height="46" fill="#fbf4e4"/>
    <path d="M50 158a25 25 0 0 0 50 0z" fill="#b5452f"/>
    <path d="M100 158a25 25 0 0 0 50 0z" fill="#fbf4e4"/>
    <path d="M150 158a25 25 0 0 0 50 0z" fill="#b5452f"/>
    <path d="M200 158a25 25 0 0 0 50 0z" fill="#fbf4e4"/>
    <path d="M250 158a25 25 0 0 0 50 0z" fill="#b5452f"/>
    <path d="M300 158a25 25 0 0 0 50 0z" fill="#fbf4e4"/>
    <path d="M350 158a25 25 0 0 0 50 0z" fill="#b5452f"/>
    <path d="M400 158a25 25 0 0 0 50 0z" fill="#fbf4e4"/>
    <path d="M450 158a25 25 0 0 0 50 0z" fill="#b5452f"/>
    <path d="M500 158a25 25 0 0 0 50 0z" fill="#fbf4e4"/>
  </g>
  <!-- vitrina con estantes -->
  <rect x="88" y="196" width="424" height="126" rx="6" fill="#163a33"/>
  <rect x="88" y="244" width="424" height="6" fill="#9a6a37"/>
  <rect x="88" y="294" width="424" height="6" fill="#9a6a37"/>
  <g>
    <rect x="108" y="212" width="16" height="32" rx="5" fill="#b5452f"/><rect x="112" y="204" width="8" height="10" rx="2" fill="#b5452f"/>
    <rect x="132" y="212" width="16" height="32" rx="5" fill="#ffcf3d"/><rect x="136" y="204" width="8" height="10" rx="2" fill="#ffcf3d"/>
    <rect x="156" y="212" width="16" height="32" rx="5" fill="#3f9b5a"/><rect x="160" y="204" width="8" height="10" rx="2" fill="#3f9b5a"/>
    <rect x="186" y="222" width="18" height="22" rx="3" fill="#f7efdc"/><rect x="186" y="228" width="18" height="6" fill="#b5452f"/>
    <rect x="208" y="222" width="18" height="22" rx="3" fill="#f7efdc"/><rect x="208" y="228" width="18" height="6" fill="#0f6b56"/>
    <rect x="236" y="214" width="34" height="30" rx="3" fill="#ffcf3d"/><rect x="236" y="224" width="34" height="8" fill="#e3b11e"/>
    <rect x="278" y="214" width="34" height="30" rx="3" fill="#e8d6ac"/>
    <rect x="322" y="212" width="16" height="32" rx="5" fill="#b5452f"/><rect x="326" y="204" width="8" height="10" rx="2" fill="#b5452f"/>
    <rect x="346" y="212" width="16" height="32" rx="5" fill="#3f9b5a"/><rect x="350" y="204" width="8" height="10" rx="2" fill="#3f9b5a"/>
    <rect x="374" y="222" width="18" height="22" rx="3" fill="#f7efdc"/><rect x="374" y="228" width="18" height="6" fill="#ffcf3d"/>
    <rect x="398" y="214" width="34" height="30" rx="3" fill="#f7efdc"/><rect x="398" y="224" width="34" height="8" fill="#0f6b56"/>
    <rect x="442" y="212" width="16" height="32" rx="5" fill="#ffcf3d"/><rect x="446" y="204" width="8" height="10" rx="2" fill="#ffcf3d"/>
    <rect x="466" y="212" width="16" height="32" rx="5" fill="#b5452f"/><rect x="470" y="204" width="8" height="10" rx="2" fill="#b5452f"/>
    <rect x="108" y="264" width="30" height="30" rx="3" fill="#e8d6ac"/>
    <rect x="144" y="270" width="22" height="24" rx="3" fill="#f7efdc"/><rect x="144" y="276" width="22" height="6" fill="#3f9b5a"/>
    <rect x="172" y="270" width="22" height="24" rx="3" fill="#f7efdc"/><rect x="172" y="276" width="22" height="6" fill="#b5452f"/>
    <rect x="452" y="264" width="40" height="30" rx="3" fill="#ffcf3d"/>
  </g>
  <!-- mostrador -->
  <rect x="62" y="306" width="476" height="14" rx="4" fill="#9a6a37"/>
  <rect x="70" y="320" width="460" height="80" fill="#c08a4f"/>
  <path d="M150 320v80M230 320v80M310 320v80M390 320v80M470 320v80" stroke="#9a6a37" stroke-width="3"/>
  <!-- panera -->
  <path d="M206 286h92l-8 20h-76z" fill="#9a6a37"/>
  <ellipse cx="226" cy="284" rx="16" ry="10" fill="#d79a4e"/><path d="M218 282l8-4m-2 8 8-4" stroke="#a96f2e" stroke-width="2" stroke-linecap="round"/>
  <ellipse cx="252" cy="281" rx="16" ry="10" fill="#e2a95c"/><path d="M244 279l8-4m-2 8 8-4" stroke="#a96f2e" stroke-width="2" stroke-linecap="round"/>
  <ellipse cx="278" cy="284" rx="16" ry="10" fill="#d79a4e"/><path d="M270 282l8-4m-2 8 8-4" stroke="#a96f2e" stroke-width="2" stroke-linecap="round"/>
  <!-- balanza -->
  <rect x="318" y="290" width="58" height="16" rx="4" fill="#e9eceb"/>
  <rect x="326" y="294" width="24" height="8" rx="2" fill="#163a33"/>
  <rect x="352" y="294" width="8" height="8" rx="2" fill="#ffcf3d"/>
  <rect x="343" y="280" width="8" height="12" fill="#c9cfcd"/>
  <ellipse cx="347" cy="278" rx="30" ry="6" fill="#d6dbd9"/>
  <!-- cajón de fruta -->
  <circle cx="414" cy="276" r="11" fill="#d9573b"/><circle cx="436" cy="274" r="11" fill="#d9573b"/>
  <circle cx="458" cy="276" r="11" fill="#b9cf45"/><circle cx="480" cy="274" r="11" fill="#b9cf45"/>
  <circle cx="425" cy="283" r="10" fill="#c94a30"/><circle cx="469" cy="283" r="10" fill="#a9c03c"/>
  <rect x="400" y="282" width="94" height="24" rx="3" fill="#c08a4f"/>
  <path d="M400 290h94M400 298h94" stroke="#9a6a37" stroke-width="2"/>
  <!-- sacos -->
  <path d="M84 402q-14-46 14-62l4-14h30l4 14q28 16 14 62z" fill="#e8d6ac"/>
  <path d="M100 326h34" stroke="#b39b6a" stroke-width="5" stroke-linecap="round"/>
  <rect x="96" y="362" width="44" height="18" rx="3" fill="#fffaf0"/>
  <text x="118" y="375" font-family="Bahnschrift, Arial, sans-serif" font-size="11" font-weight="700" text-anchor="middle" fill="#0f6b56">ARROZ</text>
  <path d="M158 402q-12-40 12-54l4-12h26l4 12q24 14 12 54z" fill="#dcc596"/>
  <path d="M172 338h30" stroke="#ad9361" stroke-width="5" stroke-linecap="round"/>
  <rect x="166" y="370" width="42" height="16" rx="3" fill="#fffaf0"/>
  <text x="187" y="382" font-family="Bahnschrift, Arial, sans-serif" font-size="10" font-weight="700" text-anchor="middle" fill="#b5452f">FRIJOL</text>
  <!-- gaseosas en jaba -->
  <rect x="452" y="362" width="78" height="40" rx="4" fill="#0f6b56"/>
  <rect x="458" y="340" width="12" height="26" rx="4" fill="#b5452f"/>
  <rect x="476" y="340" width="12" height="26" rx="4" fill="#ffcf3d"/>
  <rect x="494" y="340" width="12" height="26" rx="4" fill="#3f9b5a"/>
  <rect x="512" y="340" width="12" height="26" rx="4" fill="#b5452f"/>
  <path d="M452 376h78" stroke="#0a4f40" stroke-width="3"/>
</svg>
