<svg xmlns="http://www.w3.org/2000/svg" viewBox="0 0 280 160">
  <!-- Camión de reparto con cajas de mercadería -->
  <ellipse cx="146" cy="146" rx="124" ry="7" fill="#18211f" opacity=".1"/>
  <path d="M4 70h28M10 86h22M16 102h16" stroke="#b6c4c1" stroke-width="4" stroke-linecap="round"/>
  <rect x="40" y="48" width="150" height="80" rx="6" fill="#0f6b56"/>
  <g>
    <rect x="40" y="38" width="25" height="14" fill="#b5452f"/><rect x="65" y="38" width="25" height="14" fill="#fbf4e4"/>
    <rect x="90" y="38" width="25" height="14" fill="#b5452f"/><rect x="115" y="38" width="25" height="14" fill="#fbf4e4"/>
    <rect x="140" y="38" width="25" height="14" fill="#b5452f"/><rect x="165" y="38" width="25" height="14" fill="#fbf4e4"/>
  </g>
  <rect x="56" y="70" width="40" height="36" rx="3" fill="#c08a4f"/><path d="M56 82h40" stroke="#9a6a37" stroke-width="3"/>
  <rect x="104" y="70" width="40" height="36" rx="3" fill="#c08a4f"/><path d="M104 82h40" stroke="#9a6a37" stroke-width="3"/>
  <circle cx="66" cy="66" r="7" fill="#d9573b"/><circle cx="80" cy="64" r="7" fill="#d9573b"/>
  <circle cx="116" cy="66" r="7" fill="#b9cf45"/><circle cx="130" cy="64" r="7" fill="#b9cf45"/>
  <rect x="152" y="70" width="28" height="36" rx="3" fill="#e8d6ac"/>
  <path d="M190 68h40l26 28v32h-66z" fill="#ffcf3d"/>
  <path d="M200 76h27l18 20h-45z" fill="#d7eef0"/>
  <rect x="190" y="110" width="66" height="8" fill="#e3b11e"/>
  <rect x="250" y="102" width="10" height="8" rx="2" fill="#fffaf0"/>
  <circle cx="78" cy="130" r="16" fill="#18211f"/><circle cx="78" cy="130" r="6" fill="#e4e0d6"/>
  <circle cx="222" cy="130" r="16" fill="#18211f"/><circle cx="222" cy="130" r="6" fill="#e4e0d6"/>
</svg>
